<?xml version="1.0" standalone="no"?>
<!DOCTYPE svg PUBLIC "-//W3C//DTD SVG 20010904//EN"
 "http://www.w3.org/TR/2001/REC-SVG-20010904/DTD/svg10.dtd">
<svg version="1.0" xmlns="http://www.w3.org/2000/svg"
 width="700.000000pt" height="700.000000pt" viewBox="0 0 700.000000 700.000000"
 preserveAspectRatio="xMidYMid meet">
<metadata>
Created by potrace 1.14, written by Peter Selinger 2001-2017
</metadata>
<g transform="translate(0.000000,700.000000) scale(0.100000,-0.100000)"
fill="#000000" stroke="none">
<path d="M2800 6413 c-227 -56 -467 -145 -670 -251 -118 -61 -230 -127 -230
-136 0 -2 24 -106 54 -232 30 -126 57 -243 60 -260 6 -29 2 -35 -91 -111 -113
-93 -285 -267 -362 -366 -29 -37 -56 -65 -60 -62 -4 2 -23 7 -42 10 -19 3 -50
10 -69 15 -19 5 -51 12 -70 15 -19 3 -62 12 -95 20 -91 21 -187 43 -220 49
-29 6 -31 4 -97 -112 -84 -147 -153 -293 -206 -437 -45 -121 -99 -300 -103
-340 0 -2 -4 -18 -9 -33 -8 -29 -5 -31 111 -103 66 -41 148 -91 182 -113 34
-21 82 -51 107 -66 51 -30 50 -22 35 -200 -14 -176 -13 -188 28 -258 20 -35
37 -67 37 -73 0 -5 5 -9 10 -9 6 0 10 -4 10 -9 0 -5 23 -49 51 -98 28 -48 60
-104 71 -123 11 -19 37 -64 58 -100 21 -36 47 -81 58 -100 51 -91 93 -160 101
-164 5 -3 37 44 72 106 35 61 78 134 94 163 17 28 84 145 150 260 116 202 120
207 135 185 17 -26 322 -552 378 -652 20 -38 40 -68 43 -68 3 0 102 166 220
369 117 203 216 368 220 365 4 -2 29 -43 57 -91 27 -49 116 -203 197 -343 82
-140 153 -265 159 -277 6 -13 15 -22 19 -20 5 1 104 168 220 370 117 202 214
367 217 366 4 0 207 -347 291 -498 105 -189 159 -268 159 -232 0 5 48 91 106
192 59 101 116 201 127 221 l20 37 17 -22 c51 -64 105 -202 125 -316 57 -324
-107 -665 -387 -807 -26 -13 -49 -24 -51 -24 -4 0 -63 99 -134 226 -102 183
-269 464 -276 464 -4 0 -17 -20 -29 -45 -12 -25 -26 -45 -30 -45 -4 0 -8 -4
-8 -10 0 -5 -68 -128 -152 -272 -84 -145 -165 -287 -181 -316 -16 -30 -33 -50
-37 -45 -8 9 -215 362 -239 409 -39 75 -187 324 -192 324 -6 0 -60 -91 -267
-450 -27 -47 -75 -131 -108 -187 -32 -56 -62 -99 -67 -94 -7 7 -256 434 -320
551 -26 47 -105 180 -112 187 -1 2 -8 -9 -16 -24 -8 -15 -52 -93 -98 -173 -46
-80 -93 -161 -103 -180 -11 -19 -54 -92 -94 -162 -41 -70 -77 -134 -80 -143
-6 -14 35 -75 106 -160 54 -64 288 -293 348 -339 34 -27 62 -54 62 -61 0 -9
-56 -258 -114 -507 -3 -13 17 -31 77 -67 104 -62 257 -138 382 -190 162 -68
486 -165 499 -150 1 2 65 105 141 229 l138 226 86 -12 c124 -18 562 -10 626
10 10 3 264 -394 281 -437 8 -23 24 -22 140 8 183 48 368 117 549 207 125 62
272 146 281 159 2 4 -9 61 -25 126 -16 65 -44 181 -62 257 l-33 139 31 26 c16
14 54 46 84 71 84 69 259 246 332 336 l66 81 208 -49 c114 -27 233 -54 263
-61 l55 -13 48 81 c77 128 181 349 232 490 36 100 115 362 115 381 0 6 -408
264 -416 264 -3 0 -12 7 -21 15 -12 13 -14 29 -9 78 14 126 16 165 17 282 1
125 -7 261 -20 331 l-8 41 232 144 232 144 -33 125 c-69 262 -153 467 -292
713 -61 107 -69 117 -92 113 -32 -6 -33 -6 -240 -56 -96 -22 -184 -43 -195
-45 -11 -3 -31 -7 -45 -10 -22 -5 -34 4 -88 72 -105 129 -267 291 -389 387
l-60 47 29 122 c16 67 32 133 34 147 3 14 7 33 10 42 3 10 7 28 10 40 2 13 12
58 23 101 l19 79 -57 36 c-31 20 -119 68 -196 107 -201 102 -345 157 -575 221
-99 27 -126 32 -136 22 -6 -7 -42 -65 -81 -128 -38 -63 -98 -161 -134 -218
l-64 -103 -47 6 c-198 25 -454 25 -635 -1 -36 -5 -43 -2 -56 18 -8 13 -73 118
-144 234 l-128 210 -55 -13z m1591 -1211 l35 -57 94 1 95 2 35 56 c33 53 37
56 65 50 40 -8 165 -60 193 -80 23 -16 24 -34 2 -113 -9 -33 -7 -36 59 -102
l67 -67 60 14 c32 7 62 14 66 14 13 0 66 -106 87 -174 17 -55 19 -71 9 -77 -7
-4 -33 -21 -57 -36 l-45 -29 -1 -96 -1 -96 58 -36 57 -35 -15 -53 c-22 -73
-73 -178 -90 -185 -8 -3 -40 1 -71 9 l-57 14 -68 -68 -67 -67 14 -68 c8 -37
13 -68 12 -69 -27 -23 -208 -94 -238 -94 -4 0 -22 24 -40 53 -18 28 -34 53
-35 55 -1 2 -45 4 -97 5 l-95 2 -36 -57 c-20 -32 -41 -58 -46 -58 -22 0 -155
51 -195 74 l-42 25 15 70 15 71 -27 21 c-15 12 -45 40 -67 64 l-40 42 -57 -13
c-31 -8 -61 -14 -67 -14 -21 0 -105 183 -105 228 0 10 23 32 54 52 l55 34 -1
97 0 96 -54 33 c-30 18 -54 39 -54 47 0 23 39 132 67 185 25 47 28 50 57 43
17 -3 51 -9 76 -12 40 -5 47 -3 59 18 7 13 34 42 61 65 l47 41 -13 49 c-22 82
-20 88 39 117 61 31 155 66 177 66 8 0 31 -26 51 -57z"/>
<path d="M4423 4773 c-76 -26 -167 -129 -180 -203 -19 -105 14 -199 92 -268
181 -159 459 -33 459 208 -1 191 -188 325 -371 263z"/>
</g>
</svg>
